<svg xmlns="http://www.w3.org/2000/svg" xmlns:xlink="http://www.w3.org/1999/xlink" width="500" zoomAndPan="magnify" viewBox="0 0 375 374.999991" height="500" preserveAspectRatio="xMidYMid meet" version="1.0"><defs><g/><clipPath id="3aee276259"><path d="M 65.496094 115 L 103 115 L 103 124 L 65.496094 124 Z M 65.496094 115 " clip-rule="nonzero"/></clipPath><clipPath id="bd27767c93"><path d="M 91 87.265625 L 233.496094 87.265625 L 233.496094 235.765625 L 91 235.765625 Z M 91 87.265625 " clip-rule="nonzero"/></clipPath></defs><rect x="-37.5" width="450" fill="#ffffff" y="-37.499999" height="449.999989" fill-opacity="1"/><rect x="-37.5" width="450" fill="#000000" y="-37.499999" height="449.999989" fill-opacity="1"/><g fill="#ffffff" fill-opacity="1"><g transform="translate(163.352221, 219.766963)"><g><path d="M 1.550781 -0.421875 C 1.550781 -0.175781 1.726562 0 1.972656 0 L 7.109375 0 C 7.351562 0 7.53125 -0.175781 7.53125 -0.421875 L 7.53125 -6.136719 C 7.53125 -6.378906 7.707031 -6.554688 7.949219 -6.554688 L 8.4375 -6.554688 C 8.683594 -6.554688 8.859375 -6.734375 8.859375 -6.976562 L 8.859375 -7.464844 C 8.859375 -7.707031 9.035156 -7.882812 9.28125 -7.882812 L 9.765625 -7.882812 C 10.011719 -7.882812 10.1875 -7.707031 10.1875 -7.464844 L 10.1875 -0.421875 C 10.1875 -0.175781 10.363281 0 10.609375 0 L 15.746094 0 C 15.992188 0 16.167969 -0.175781 16.167969 -0.421875 L 16.167969 -18.980469 C 16.167969 -19.222656 15.992188 -19.402344 15.746094 -19.402344 L 15.257812 -19.402344 C 15.015625 -19.402344 14.839844 -19.578125 14.839844 -19.820312 L 14.839844 -20.308594 C 14.839844 -20.554688 14.660156 -20.730469 14.417969 -20.730469 L 7.265625 -20.730469 C 7.019531 -20.730469 6.84375 -20.554688 6.84375 -20.308594 L 6.84375 -19.820312 C 6.84375 -19.578125 6.667969 -19.402344 6.421875 -19.402344 L 6.203125 -19.402344 C 5.957031 -19.402344 5.78125 -19.222656 5.78125 -18.980469 L 5.78125 -18.492188 C 5.78125 -18.25 5.601562 -18.074219 5.359375 -18.074219 L 4.871094 -18.074219 C 4.628906 -18.074219 4.453125 -17.894531 4.453125 -17.652344 L 4.453125 -17.164062 C 4.453125 -16.921875 4.273438 -16.742188 4.03125 -16.742188 L 3.542969 -16.742188 C 3.300781 -16.742188 3.121094 -16.566406 3.121094 -16.324219 L 3.121094 -15.835938 C 3.121094 -15.59375 2.945312 -15.414062 2.703125 -15.414062 L 1.972656 -15.414062 C 1.726562 -15.414062 1.550781 -15.238281 1.550781 -14.992188 Z M 7.949219 -9.082031 C 7.707031 -9.082031 7.53125 -9.257812 7.53125 -9.5 L 7.53125 -17.652344 C 7.53125 -17.894531 7.707031 -18.074219 7.949219 -18.074219 L 8.4375 -18.074219 C 8.683594 -18.074219 8.859375 -18.25 8.859375 -18.492188 L 8.859375 -18.980469 C 8.859375 -19.222656 9.035156 -19.402344 9.28125 -19.402344 L 9.765625 -19.402344 C 10.011719 -19.402344 10.1875 -19.222656 10.1875 -18.980469 L 10.1875 -10.832031 C 10.1875 -10.585938 10.011719 -10.410156 9.765625 -10.410156 L 9.28125 -10.410156 C 9.035156 -10.410156 8.859375 -10.230469 8.859375 -9.988281 L 8.859375 -9.5 C 8.859375 -9.257812 8.683594 -9.082031 8.4375 -9.082031 Z M 7.949219 -9.082031 "/></g></g></g><g fill="#ffffff" fill-opacity="1"><g transform="translate(186.909734, 219.766963)"><g><path d="M 1.550781 -0.421875 C 1.550781 -0.15625 1.707031 0 1.972656 0 L 7.109375 0 C 7.375 0 7.53125 -0.15625 7.53125 -0.421875 L 7.53125 -8.015625 C 7.53125 -8.28125 7.683594 -8.4375 7.949219 -8.4375 L 8.460938 -8.4375 C 8.726562 -8.4375 8.882812 -8.59375 8.882812 -8.859375 L 8.882812 -9.347656 C 8.882812 -9.613281 9.035156 -9.765625 9.300781 -9.765625 L 9.765625 -9.765625 C 10.03125 -9.765625 10.1875 -9.613281 10.1875 -9.347656 L 10.1875 -0.421875 C 10.1875 -0.15625 10.34375 0 10.609375 0 L 15.746094 0 C 16.011719 0 16.167969 -0.15625 16.167969 -0.421875 L 16.167969 -20.308594 C 16.167969 -20.574219 16.011719 -20.730469 15.746094 -20.730469 L 10.609375 -20.730469 C 10.34375 -20.730469 10.1875 -20.574219 10.1875 -20.308594 L 10.1875 -12.710938 C 10.1875 -12.445312 10.03125 -12.292969 9.765625 -12.292969 L 9.300781 -12.292969 C 9.035156 -12.292969 8.882812 -12.136719 8.882812 -11.871094 L 8.882812 -11.382812 C 8.882812 -11.117188 8.726562 -10.964844 8.460938 -10.964844 L 7.949219 -10.964844 C 7.683594 -10.964844 7.53125 -11.117188 7.53125 -11.382812 L 7.53125 -20.308594 C 7.53125 -20.574219 7.375 -20.730469 7.109375 -20.730469 L 1.972656 -20.730469 C 1.707031 -20.730469 1.550781 -20.574219 1.550781 -20.308594 Z M 1.550781 -0.421875 "/></g></g></g><g fill="#ffffff" fill-opacity="1"><g transform="translate(210.467246, 219.766963)"><g><path d="M 1.550781 -0.421875 C 1.550781 -0.175781 1.726562 0 1.972656 0 L 7.109375 0 C 7.351562 0 7.53125 -0.175781 7.53125 -0.421875 L 7.53125 -20.308594 C 7.53125 -20.554688 7.351562 -20.730469 7.109375 -20.730469 L 1.972656 -20.730469 C 1.726562 -20.730469 1.550781 -20.554688 1.550781 -20.308594 Z M 1.550781 -0.421875 "/></g></g></g><g fill="#ffffff" fill-opacity="1"><g transform="translate(225.391405, 219.766963)"><g><path d="M 1.550781 -0.421875 C 1.550781 -0.15625 1.707031 0 1.972656 0 L 7.109375 0 C 7.375 0 7.53125 -0.15625 7.53125 -0.421875 L 7.53125 -12.335938 C 7.53125 -12.601562 7.683594 -12.757812 7.949219 -12.757812 L 8.4375 -12.757812 C 8.703125 -12.757812 8.859375 -12.601562 8.859375 -12.335938 L 8.859375 -11.847656 C 8.859375 -11.582031 9.015625 -11.429688 9.28125 -11.429688 L 9.765625 -11.429688 C 10.011719 -11.429688 10.1875 -11.25 10.1875 -11.007812 L 10.1875 -10.519531 C 10.1875 -10.277344 10.363281 -10.097656 10.609375 -10.097656 L 11.097656 -10.097656 C 11.363281 -10.097656 11.515625 -10.253906 11.515625 -10.519531 L 11.515625 -11.007812 C 11.515625 -11.273438 11.671875 -11.429688 11.9375 -11.429688 L 12.425781 -11.429688 C 12.667969 -11.429688 12.84375 -11.605469 12.84375 -11.847656 L 12.84375 -12.335938 C 12.84375 -12.578125 13.023438 -12.757812 13.265625 -12.757812 L 13.753906 -12.757812 C 14.019531 -12.757812 14.175781 -12.601562 14.175781 -12.335938 L 14.175781 -0.421875 C 14.175781 -0.15625 14.328125 0 14.59375 0 L 19.734375 0 C 20 0 20.152344 -0.15625 20.152344 -0.421875 L 20.152344 -20.308594 C 20.152344 -20.574219 20 -20.730469 19.734375 -20.730469 L 18.605469 -20.730469 C 18.359375 -20.730469 18.183594 -20.554688 18.183594 -20.308594 L 18.183594 -19.820312 C 18.183594 -19.578125 18.007812 -19.402344 17.761719 -19.402344 L 17.253906 -19.402344 C 16.988281 -19.402344 16.832031 -19.246094 16.832031 -18.980469 L 16.832031 -18.492188 C 16.832031 -18.226562 16.675781 -18.074219 16.410156 -18.074219 L 15.925781 -18.074219 C 15.660156 -18.074219 15.503906 -17.917969 15.503906 -17.652344 L 15.503906 -17.164062 C 15.503906 -16.898438 15.347656 -16.742188 15.082031 -16.742188 L 14.59375 -16.742188 C 14.328125 -16.742188 14.175781 -16.589844 14.175781 -16.324219 L 14.175781 -15.835938 C 14.175781 -15.570312 14.019531 -15.414062 13.753906 -15.414062 L 13.265625 -15.414062 C 13 -15.414062 12.84375 -15.257812 12.84375 -14.992188 L 12.84375 -14.507812 C 12.84375 -14.242188 12.691406 -14.085938 12.425781 -14.085938 L 11.9375 -14.085938 C 11.671875 -14.085938 11.515625 -13.929688 11.515625 -13.664062 L 11.515625 -13.179688 C 11.515625 -12.910156 11.363281 -12.757812 11.097656 -12.757812 L 10.609375 -12.757812 C 10.363281 -12.757812 10.1875 -12.933594 10.1875 -13.179688 L 10.1875 -13.664062 C 10.1875 -13.910156 10.011719 -14.085938 9.765625 -14.085938 L 9.28125 -14.085938 C 9.015625 -14.085938 8.859375 -14.242188 8.859375 -14.507812 L 8.859375 -14.992188 C 8.859375 -15.257812 8.703125 -15.414062 8.4375 -15.414062 L 7.949219 -15.414062 C 7.683594 -15.414062 7.53125 -15.570312 7.53125 -15.835938 L 7.53125 -16.324219 C 7.53125 -16.589844 7.375 -16.742188 7.109375 -16.742188 L 6.621094 -16.742188 C 6.355469 -16.742188 6.203125 -16.898438 6.203125 -17.164062 L 6.203125 -17.652344 C 6.203125 -17.917969 6.046875 -18.074219 5.78125 -18.074219 L 5.292969 -18.074219 C 5.027344 -18.074219 4.871094 -18.226562 4.871094 -18.492188 L 4.871094 -18.980469 C 4.871094 -19.246094 4.71875 -19.402344 4.453125 -19.402344 L 3.964844 -19.402344 C 3.699219 -19.402344 3.542969 -19.554688 3.542969 -19.820312 L 3.542969 -20.308594 C 3.542969 -20.574219 3.386719 -20.730469 3.121094 -20.730469 L 1.972656 -20.730469 C 1.707031 -20.730469 1.550781 -20.574219 1.550781 -20.308594 Z M 1.550781 -0.421875 "/></g></g></g><path fill="#ffffff" d="M 92.1875 130.371094 L 106.230469 130.371094 C 108.175781 130.371094 109.855469 131.960938 109.855469 133.992188 C 109.855469 135.933594 108.265625 137.613281 106.230469 137.613281 L 92.1875 137.613281 C 90.246094 137.613281 88.566406 136.023438 88.566406 133.992188 C 88.65625 131.960938 90.246094 130.371094 92.1875 130.371094 Z M 92.1875 130.371094 " fill-opacity="1" fill-rule="evenodd"/><path fill="#ffffff" d="M 88.125 202.535156 L 103.496094 202.535156 C 105.4375 202.535156 107.117188 204.125 107.117188 206.15625 C 107.117188 208.097656 105.527344 209.777344 103.496094 209.777344 L 88.125 209.777344 C 86.179688 209.777344 84.503906 208.1875 84.503906 206.15625 C 84.503906 204.214844 86.09375 202.535156 88.125 202.535156 Z M 88.125 202.535156 " fill-opacity="1" fill-rule="evenodd"/><g clip-path="url(#3aee276259)"><path fill="#ffffff" d="M 69.222656 115.972656 L 99.164062 115.972656 C 101.109375 115.972656 102.789062 117.5625 102.789062 119.59375 C 102.789062 121.535156 101.199219 123.214844 99.164062 123.214844 L 69.222656 123.214844 C 67.277344 123.214844 65.601562 121.625 65.601562 119.59375 C 65.601562 117.5625 67.191406 115.972656 69.222656 115.972656 Z M 69.222656 115.972656 " fill-opacity="1" fill-rule="evenodd"/></g><path fill="#ffffff" d="M 81.410156 173.652344 L 90.246094 173.652344 C 92.1875 173.652344 93.867188 175.242188 93.867188 177.273438 C 93.867188 179.214844 92.277344 180.894531 90.246094 180.894531 L 81.410156 180.894531 C 79.46875 180.894531 77.789062 179.304688 77.789062 177.273438 C 77.789062 175.328125 79.46875 173.652344 81.410156 173.652344 Z M 81.410156 173.652344 " fill-opacity="1" fill-rule="evenodd"/><path fill="#ffffff" d="M 92.101562 217.019531 L 96.164062 217.019531 C 98.105469 217.019531 99.785156 218.609375 99.785156 220.640625 C 99.785156 222.585938 98.195312 224.265625 96.164062 224.265625 L 92.101562 224.265625 C 90.15625 224.265625 88.476562 222.671875 88.476562 220.640625 C 88.476562 218.609375 90.066406 217.019531 92.101562 217.019531 Z M 92.101562 217.019531 " fill-opacity="1" fill-rule="evenodd"/><path fill="#ffffff" d="M 96.605469 101.664062 L 101.199219 101.664062 C 103.140625 101.664062 104.820312 103.253906 104.820312 105.285156 C 104.820312 107.226562 103.230469 108.90625 101.199219 108.90625 L 96.605469 108.90625 C 94.660156 108.90625 92.984375 107.316406 92.984375 105.285156 C 92.984375 103.253906 94.660156 101.664062 96.605469 101.664062 Z M 96.605469 101.664062 " fill-opacity="1" fill-rule="evenodd"/><g clip-path="url(#bd27767c93)"><path fill="#ffffff" d="M 121.867188 87.265625 L 231.75 87.265625 C 232.71875 87.265625 233.425781 88.058594 233.425781 88.941406 L 233.425781 115.089844 C 233.425781 116.058594 232.632812 116.765625 231.75 116.765625 L 154.636719 116.765625 C 153.664062 116.765625 152.957031 117.5625 152.957031 118.445312 L 152.957031 147.152344 C 152.957031 148.125 153.753906 148.832031 154.636719 148.832031 L 222.210938 148.832031 C 223.179688 148.832031 223.886719 149.625 223.886719 150.507812 L 223.886719 176.652344 C 223.886719 177.625 223.09375 178.332031 222.210938 178.332031 L 154.636719 178.332031 C 153.664062 178.332031 152.957031 179.128906 152.957031 180.011719 L 152.957031 234.15625 C 152.957031 235.128906 152.164062 235.835938 151.28125 235.835938 L 121.867188 235.835938 C 120.894531 235.835938 120.1875 235.039062 120.1875 234.15625 L 120.1875 233.007812 C 120.1875 232.035156 120.984375 231.332031 121.867188 231.332031 L 140.679688 231.332031 C 142.625 231.332031 144.300781 229.738281 144.300781 227.707031 C 144.300781 225.765625 142.710938 224.085938 140.679688 224.085938 L 109.675781 224.085938 C 107.734375 224.085938 106.054688 222.496094 106.054688 220.464844 C 106.054688 218.523438 107.644531 216.84375 109.675781 216.84375 L 123.28125 216.84375 C 125.222656 216.84375 126.902344 215.253906 126.902344 213.222656 C 126.902344 211.277344 125.3125 209.601562 123.28125 209.601562 L 119.660156 209.601562 C 117.714844 209.601562 116.035156 208.011719 116.035156 205.980469 C 116.035156 204.035156 117.625 202.359375 119.660156 202.359375 L 131.140625 202.359375 C 133.085938 202.359375 134.761719 200.769531 134.761719 198.738281 C 134.761719 196.792969 133.171875 195.113281 131.140625 195.113281 L 110.207031 195.113281 C 108.265625 195.113281 106.585938 193.523438 106.585938 191.492188 C 106.585938 189.550781 108.175781 187.871094 110.207031 187.871094 L 127.253906 187.871094 C 129.199219 187.871094 130.875 186.28125 130.875 184.25 C 130.875 182.308594 129.285156 180.628906 127.253906 180.628906 L 101.902344 180.628906 C 99.960938 180.628906 98.28125 179.039062 98.28125 177.007812 C 98.28125 175.0625 99.871094 173.386719 101.902344 173.386719 L 140.152344 173.386719 C 142.09375 173.386719 143.773438 171.796875 143.773438 169.765625 C 143.773438 167.820312 142.183594 166.144531 140.152344 166.144531 L 101.199219 166.144531 C 99.253906 166.144531 97.574219 164.554688 97.574219 162.519531 C 97.574219 160.578125 99.164062 158.898438 101.199219 158.898438 L 117.183594 158.898438 C 119.128906 158.898438 120.808594 157.308594 120.808594 155.277344 C 120.808594 153.335938 119.21875 151.65625 117.183594 151.65625 L 95.28125 151.65625 C 93.335938 151.65625 91.65625 150.066406 91.65625 148.035156 C 91.65625 146.09375 93.246094 144.414062 95.28125 144.414062 L 135.203125 144.414062 C 137.148438 144.414062 138.824219 142.824219 138.824219 140.792969 C 138.824219 138.847656 137.234375 137.171875 135.203125 137.171875 L 119.039062 137.171875 C 117.097656 137.171875 115.417969 135.582031 115.417969 133.550781 C 115.417969 131.605469 117.007812 129.929688 119.039062 129.929688 L 124.164062 129.929688 C 126.105469 129.929688 127.785156 128.335938 127.785156 126.304688 C 127.785156 124.539062 126.460938 123.039062 124.78125 122.773438 L 115.066406 122.773438 C 113.121094 122.773438 111.445312 121.183594 111.445312 119.152344 C 111.445312 117.207031 113.035156 115.53125 115.066406 115.53125 L 130.082031 115.53125 C 130.347656 115.53125 130.523438 115.53125 130.789062 115.617188 C 132.554688 115.351562 133.878906 113.851562 133.878906 112.085938 C 133.878906 110.320312 132.554688 108.816406 130.875 108.550781 L 126.726562 108.550781 C 126.546875 108.550781 126.28125 108.550781 126.105469 108.464844 L 125.222656 108.464844 C 125.046875 108.464844 124.78125 108.550781 124.605469 108.550781 L 111.003906 108.550781 C 109.058594 108.550781 107.378906 106.960938 107.378906 104.929688 C 107.378906 102.988281 108.96875 101.308594 111.003906 101.308594 L 135.382812 101.308594 C 137.324219 101.308594 139.003906 99.71875 139.003906 97.6875 C 139.003906 95.921875 137.675781 94.417969 136 94.152344 L 118.597656 94.152344 C 116.65625 94.152344 114.976562 92.5625 114.976562 90.53125 C 115.066406 88.855469 116.65625 87.265625 118.6875 87.265625 Z M 121.867188 87.265625 " fill-opacity="1" fill-rule="evenodd"/></g></svg>